<?xml version="1.0" encoding="UTF-8"?>
<svg width="500" height="500" version="1.1" viewBox="0 0 500 500" xmlns="http://www.w3.org/2000/svg">
	<defs>
		<marker id="DartArrow-0" overflow="visible" markerHeight="1" markerWidth="1" orient="auto-start-reverse" preserveAspectRatio="xMidYMid" viewBox="0 0 1 1">
			<path transform="scale(-.5)" d="m0 0 5-5-17.5 5 17.5 5z" fill="context-stroke" fill-rule="evenodd"/>
		</marker>
		<marker id="DartArrow-7" overflow="visible" markerHeight="1" markerWidth="1" orient="auto-start-reverse" preserveAspectRatio="xMidYMid" viewBox="0 0 1 1">
			<path transform="scale(-.5)" d="m0 0 5-5-17.5 5 17.5 5z" fill="context-stroke" fill-rule="evenodd"/>
		</marker>
	</defs>
	<g stroke-linejoin="round">
		<path d="m1.5 1.5h497v497h-497z" fill="#fff" stroke="#000" stroke-linecap="round" stroke-width="3"/>
		<path transform="translate(-1.5 1.5)" d="m1.5 498.5 497-497" fill="#fff" stroke="#000" stroke-dasharray="12,6" stroke-width="3"/>
		<g fill-opacity="0">
			<path d="m119.78 108.31s107.36 56.518 147.95 100.08c53.994 57.96 118.89 205.76 118.89 205.76s-91.728-112.62-148.99-156.18c-44.595-33.922-148.18-79.354-148.18-79.354" marker-end="url(#DartArrow-7)" stroke="#000" stroke-width="3"/>
			<path d="m233-506.14s71.712 94.832 59.478 221.28c-11.591 119.81-52.487 183.76-52.487 183.76" marker-end="url(#DartArrow-0)" stroke="#000" stroke-width="3"/>
			<path d="m11.5 250h477" stroke="#4b4b4b"/>
			<path transform="rotate(90 250 250)" d="m11.5 250h477" stroke="#4b4b4b"/>
		</g>
		<path transform="translate(499.56 -563.43)" d="m1.5 498.5 497-497" fill="#fff" stroke="#000" stroke-dasharray="12, 6" stroke-width="3"/>
		<path d="m-433.19-357.52s107.36 56.518 147.95 100.08c53.994 57.96 118.89 205.76 118.89 205.76s-91.728-112.62-148.99-156.18c-44.595-33.922-148.18-79.354-148.18-79.354" fill-opacity="0" marker-end="url(#DartArrow-7)" stroke="#000" stroke-width="3"/>
	</g>
</svg>
